# xmcd
#
# Track frame offsets: 
#        150
#        30811
#        45642
#        74690
#        89560
#        103136
#        117474
#        174729
#        187284
#        214816
#        243174
#        259033
#        271917
#        295166
#
# Disc length: 4055 seconds
#
# Revision: 0
# Processed by: cddbd v1.5.2PL0 Copyright (c) Steve Scherf et al.
# Submitted via: ExactAudioCopy v1.0b3
#
DISCID=d50fd50e
DTITLE=Barn - Barnklassiker vi minns 1939-56 [CD 2]
DYEAR=2008
DGENRE=
TTITLE0=Pippi Långstrump får besök av tjuvar
TTITLE1=Ram tam jam
TTITLE2=Pelle Svanslös far till Blåkulla
TTITLE3=Hottentottvisa
TTITLE4=Familjen Tuff-tuff och tågkannibalerna
TTITLE5=Kungens lilla piga - Annikas visa
TTITLE6=Alice i Underlandet
TTITLE7=Det ska vara en cowboy
TTITLE8=Rasmus träffar mästerdetektiven Blomqvist och Eva-Lotta
TTITLE9=Tomtebobarnen
TTITLE10=Pojken som visslade för prinsessan
TTITLE11=Bamsens födelsedag
TTITLE12=Piff och Paff
TTITLE13=Tomtegubben som hade snuva
EXTD=
EXTT0=
EXTT1=
EXTT2=
EXTT3=
EXTT4=
EXTT5=
EXTT6=
EXTT7=
EXTT8=
EXTT9=
EXTT10=
EXTT11=
EXTT12=
EXTT13=
PLAYORDER=
